HIERARCHY
ROOT Hips
{
	OFFSET 0.000000 0.000000 0.000000
	CHANNELS 6 Xposition Yposition Zposition Zrotation Yrotation Xrotation 
	JOINT LowerBack
	{
		OFFSET 0.000000 0.000000 0.000000
		CHANNELS 3 Zrotation Yrotation Xrotation
		JOINT Spine
		{
			OFFSET 0.028270 2.035590 -0.193380
			CHANNELS 3 Zrotation Yrotation Xrotation
			JOINT Spine1
			{
				OFFSET 0.056720 2.048850 -0.042750
				CHANNELS 3 Zrotation Yrotation Xrotation
				JOINT Neck
				{
					OFFSET 0.000000 0.000000 0.000000
					CHANNELS 3 Zrotation Yrotation Xrotation
					JOINT Neck1
					{
						OFFSET -0.054170 1.746240 0.172020
						CHANNELS 3 Zrotation Yrotation Xrotation
						JOINT Head
						{
							OFFSET 0.104070 1.761360 -0.123970
							CHANNELS 3 Zrotation Yrotation Xrotation
							End Site
							{
								OFFSET 0.000000 0.000000 0.000000
							}
						}
					}
				}
				JOINT LeftShoulder
				{
					OFFSET 0.000000 0.000000 0.000000
					CHANNELS 3 Zrotation Yrotation Xrotation
					JOINT LeftArm
					{
						OFFSET 3.362410 1.200890 -0.311210
						CHANNELS 3 Zrotation Yrotation Xrotation
						JOINT LeftForeArm
						{
							OFFSET 4.983000 -0.000000 -0.000000
							CHANNELS 3 Zrotation Yrotation Xrotation
							JOINT LeftHand
							{
								OFFSET 3.483560 -0.000000 -0.000000
								CHANNELS 3 Zrotation Yrotation Xrotation
								JOINT LeftFingerBase
								{
									OFFSET 0.000000 0.000000 0.000000
									CHANNELS 3 Zrotation Yrotation Xrotation
									JOINT LeftHandIndex1
									{
										OFFSET 0.715260 -0.000000 -0.000000
										CHANNELS 3 Zrotation Yrotation Xrotation
										End Site
										{
											OFFSET 0.000000 0.000000 0.000000
										}
									}
								}
								JOINT LThumb
								{
									OFFSET 0.000000 0.000000 0.000000
									CHANNELS 3 Zrotation Yrotation Xrotation
									End Site
									{
										OFFSET 0.000000 0.000000 0.000000
									}
								}
							}
						}
					}
				}
				JOINT RightShoulder
				{
					OFFSET 0.000000 0.000000 0.000000
					CHANNELS 3 Zrotation Yrotation Xrotation
					JOINT RightArm
					{
						OFFSET -3.136600 1.374050 -0.404650
						CHANNELS 3 Zrotation Yrotation Xrotation
						JOINT RightForeArm
						{
							OFFSET -5.241900 -0.000000 -0.000000
							CHANNELS 3 Zrotation Yrotation Xrotation
							JOINT RightHand
							{
								OFFSET -3.444170 -0.000000 -0.000000
								CHANNELS 3 Zrotation Yrotation Xrotation
								JOINT RightFingerBase
								{
									OFFSET 0.000000 0.000000 0.000000
									CHANNELS 3 Zrotation Yrotation Xrotation
									JOINT RightHandIndex1
									{
										OFFSET -0.622530 -0.000000 -0.000000
										CHANNELS 3 Zrotation Yrotation Xrotation
										End Site
										{
											OFFSET 0.000000 0.000000 0.000000
										}
									}
								}
								JOINT RThumb
								{
									OFFSET 0.000000 0.000000 0.000000
									CHANNELS 3 Zrotation Yrotation Xrotation
									End Site
									{
										OFFSET 0.000000 0.000000 0.000000
									}
								}
							}
						}
					}
				}
			}
		}
	}
}
}
MOTION
Frames: 17
Frame Time: 0.008333
-8.115988 17.247582 -2.183502 8.385708 82.624538 42.438266 -1.486682 2.863026 3.268601 -1.316606 2.904306 -2.660369 -5.142125 2.813953 -0.750051 8.598443 5.032638 3.578125 -2.824971 -0.337705 2.653355 0.000000 0.000000 0.000000 -3.873858 0.711228 3.552605 -53.204029 2.375294 6.333009 -4.225625 -4.748980 -0.014768 0.406165 5.681838 0.027313 -0.146770 0.009368 -0.000000 0.000000 0.000000 0.000000 0.000000 0.000000 0.000000 11.500437 8.916343 -3.057501 98.615266 33.433411 54.844494 0.898151 64.025786 0.010338 2.875430 14.763432 0.395642 -0.064639 -0.528227 -0.000000 0.000000 0.000000 0.000000 0.000000 0.000000 0.000000 
-7.917344 17.155070 -2.187409 10.567537 82.741705 44.403408 -1.707653 2.870680 3.258648 -1.358380 2.922650 -2.671165 -5.128921 2.834354 -0.786857 8.536582 5.055494 3.560306 -2.802787 -0.336839 2.651340 0.000000 0.000000 0.000000 -3.655448 0.872787 3.580558 -52.856284 1.906612 5.868556 -4.221729 -3.885875 -0.015702 0.984143 5.877318 0.057898 -0.149267 0.012567 -0.000000 0.000000 0.000000 0.000000 0.000000 0.000000 0.000000 11.326266 8.990814 -3.147682 99.019125 33.463304 54.892248 0.873594 64.380625 0.009677 2.841667 14.897898 0.394937 -0.066575 -0.534773 -0.000000 0.000000 0.000000 0.000000 0.000000 0.000000 0.000000 
-7.720545 17.052041 -2.189530 13.534822 82.887208 47.148660 -1.974193 2.847246 3.259600 -1.407929 2.912512 -2.681876 -5.121889 2.826141 -0.830506 8.504434 5.084007 3.525792 -2.789785 -0.336167 2.644817 0.000000 0.000000 0.000000 -3.433757 0.981248 3.615998 -52.508132 1.391581 5.368395 -4.215075 -3.013596 -0.016730 1.600613 6.069944 0.092481 -0.151679 0.016399 -0.000000 0.000000 0.000000 0.000000 0.000000 0.000000 0.000000 11.234597 9.051276 -3.216148 99.301887 33.468865 54.799419 0.847259 64.643001 0.008609 2.757728 15.023470 0.387027 -0.068147 -0.540602 -0.000000 0.000000 0.000000 0.000000 0.000000 0.000000 0.000000 
-7.525823 16.939158 -2.190037 17.119672 83.045971 50.501944 -2.265310 2.799150 3.284189 -1.461345 2.879305 -2.689244 -5.122295 2.794685 -0.878623 8.495003 5.120182 3.469557 -2.786663 -0.335613 2.632206 0.000000 0.000000 0.000000 -3.227087 1.067101 3.658459 -52.144060 0.801842 4.890766 -4.208015 -2.143597 -0.017858 2.213608 6.259780 0.128864 -0.153974 0.020833 -0.000000 0.000000 0.000000 0.000000 0.000000 0.000000 0.000000 11.219187 9.103161 -3.264044 99.468918 33.447846 54.559234 0.819782 64.809759 0.007227 2.645737 15.135829 0.374814 -0.069716 -0.545539 -0.000000 0.000000 0.000000 0.000000 0.000000 0.000000 0.000000 
-7.333689 16.817737 -2.188489 21.293636 83.192021 54.427720 -2.585821 2.732341 3.342637 -1.520719 2.828880 -2.693361 -5.131899 2.745811 -0.941264 8.510020 5.169186 3.402953 -2.794610 -0.335413 2.616398 0.000000 0.000000 0.000000 -3.044556 1.068424 3.708438 -51.756423 0.218130 4.364414 -4.202284 -1.320039 -0.019056 2.795624 6.439124 0.165148 -0.156055 0.025874 -0.000000 0.000000 0.000000 0.000000 0.000000 0.000000 0.000000 11.289358 9.155556 -3.285154 99.514024 33.392762 54.150585 0.791374 64.873381 0.005610 2.526803 15.231279 0.360895 -0.071766 -0.549584 -0.000000 0.000000 0.000000 0.000000 0.000000 0.000000 0.000000 
-7.144507 16.689302 -2.185318 25.805660 83.308248 58.675976 -2.914570 2.654466 3.444238 -1.582485 2.767587 -2.689692 -5.150487 2.685967 -1.010582 8.540615 5.232248 3.321178 -2.813474 -0.335435 2.595587 0.000000 0.000000 0.000000 -2.907302 1.041773 3.763213 -51.334665 -0.428009 3.880222 -4.199130 -0.535768 -0.020293 3.318921 6.602923 0.199432 -0.157857 0.031473 -0.000000 0.000000 0.000000 0.000000 0.000000 0.000000 0.000000 11.432164 9.211189 -3.284608 99.448786 33.302135 53.569285 0.762821 64.828054 0.003869 2.421444 15.306006 0.348370 -0.074562 -0.552458 -0.000000 0.000000 0.000000 0.000000 0.000000 0.000000 0.000000 
-6.958783 16.556090 -2.180331 30.520072 83.374130 63.109020 -3.253817 2.571525 3.595246 -1.647999 2.701107 -2.678044 -5.178261 2.620845 -1.092388 8.587241 5.314008 3.237050 -2.843342 -0.335864 2.572928 0.000000 0.000000 0.000000 -2.824459 0.941034 3.821074 -50.880970 -1.082365 3.371652 -4.197781 0.182812 -0.021489 3.783028 6.730879 0.230318 -0.159244 0.037638 -0.000000 0.000000 0.000000 0.000000 0.000000 0.000000 0.000000 11.649655 9.275654 -3.259076 99.269176 33.168016 52.796832 0.734243 64.665303 0.002053 2.339645 15.358485 0.338540 -0.078310 -0.554087 -0.000000 0.000000 0.000000 0.000000 0.000000 0.000000 0.000000 
-6.776967 16.420705 -2.173616 35.230675 83.377577 67.521579 -3.598976 2.488530 3.800718 -1.716641 2.633925 -2.656335 -5.214387 2.554958 -1.183621 8.647912 5.416069 3.156219 -2.883656 -0.336718 2.549489 0.000000 0.000000 0.000000 -2.806840 0.775058 3.878739 -50.398821 -1.763521 2.846486 -4.196560 0.835486 -0.022562 4.200034 6.800247 0.257209 -0.160115 0.044328 -0.000000 0.000000 0.000000 0.000000 0.000000 0.000000 0.000000 11.936368 9.348963 -3.210806 98.978716 32.985937 51.824604 0.705773 64.377227 0.000184 2.281480 15.389677 0.331708 -0.082935 -0.554312 -0.000000 0.000000 0.000000 0.000000 0.000000 0.000000 0.000000 
-6.599391 16.285984 -2.165357 39.726451 83.313297 71.704418 -3.944658 2.408928 4.064902 -1.787034 2.569056 -2.621671 -5.257170 2.491367 -1.276777 8.719630 5.539661 3.081018 -2.933099 -0.337910 2.525398 0.000000 0.000000 0.000000 -2.865640 0.580589 3.932281 -49.893099 -2.522860 2.365313 -4.193862 1.425233 -0.023459 4.591782 6.794773 0.279800 -0.160420 0.051390 -0.000000 0.000000 0.000000 0.000000 0.000000 0.000000 0.000000 12.281257 9.428993 -3.145157 98.584279 32.751450 50.645657 0.677481 63.957175 -0.001736 2.240098 15.402571 0.326772 -0.088184 -0.552940 -0.000000 0.000000 0.000000 0.000000 0.000000 0.000000 0.000000 
-6.426205 16.154877 -2.155620 43.824255 83.180304 75.475259 -4.288045 2.329677 4.390408 -1.857832 2.503373 -2.575409 -5.304512 2.426706 -1.376684 8.799123 5.683264 3.020433 -2.991435 -0.339558 2.503076 0.000000 0.000000 0.000000 -2.993369 0.315604 3.986728 -49.385016 -3.049792 1.901906 -4.191118 1.339427 -0.024810 5.012504 6.952462 0.311499 -0.160213 0.057891 -0.000000 0.000000 0.000000 0.000000 0.000000 0.000000 0.000000 12.678315 9.524457 -3.058334 98.089062 32.456757 49.260666 0.651553 63.396597 -0.003695 2.190080 15.402644 0.320340 -0.093175 -0.550085 -0.000000 0.000000 0.000000 0.000000 0.000000 0.000000 0.000000 
-6.257365 16.030221 -2.144915 47.358871 82.990745 78.669406 -4.615652 2.257962 4.773224 -1.925719 2.443379 -2.514889 -5.353782 2.367626 -1.470969 8.884920 5.847660 2.978003 -3.055082 -0.341462 2.483248 0.000000 0.000000 0.000000 -3.195878 0.031905 4.031225 -48.900983 -3.626056 1.486656 -4.180181 1.079477 -0.025994 5.504547 7.027837 0.344501 -0.159258 0.064280 -0.000000 0.000000 0.000000 0.000000 0.000000 0.000000 0.000000 13.106370 9.619925 -2.960093 97.497911 32.096955 47.663863 0.625719 62.693079 -0.005861 2.104805 15.397266 0.308708 -0.097552 -0.545466 -0.000000 0.000000 0.000000 0.000000 0.000000 0.000000 0.000000 
-6.092647 15.914512 -2.133618 50.244003 82.756890 81.200005 -4.918887 2.198377 5.207558 -1.988574 2.393318 -2.439661 -5.402849 2.318433 -1.553419 8.977589 6.026668 2.959134 -3.120894 -0.343509 2.467455 0.000000 0.000000 0.000000 -3.464018 -0.262257 4.058908 -48.473178 -4.364835 1.065003 -4.152444 0.875226 -0.026727 6.126409 6.888006 0.374310 -0.157308 0.070679 0.000000 0.000000 0.000000 0.000000 0.000000 0.000000 0.000000 13.549517 9.700476 -2.855142 96.813756 31.668034 45.856783 0.598750 61.844681 -0.008389 1.948230 15.393154 0.286978 -0.100681 -0.538956 -0.000000 0.000000 0.000000 0.000000 0.000000 0.000000 0.000000 
-5.931578 15.809862 -2.122332 52.445506 82.495924 83.034696 -5.183564 2.151126 5.683697 -2.042968 2.353082 -2.350409 -5.449468 2.279020 -1.618542 9.074173 6.214961 2.965195 -3.186042 -0.345554 2.456399 0.000000 0.000000 0.000000 -3.787370 -0.553081 4.066562 -48.133010 -5.281383 0.632804 -4.103194 0.737346 -0.027031 6.925738 6.508593 0.398022 -0.154207 0.076823 0.000000 0.000000 0.000000 0.000000 0.000000 0.000000 0.000000 13.988297 9.757422 -2.747461 96.043548 31.167092 43.849160 0.570389 60.849082 -0.011386 1.683706 15.395964 0.249951 -0.101828 -0.530484 -0.000000 0.000000 0.000000 0.000000 0.000000 0.000000 0.000000 
-5.773529 15.717885 -2.111634 53.982761 82.224640 84.196090 -5.395374 2.114861 6.189334 -2.085403 2.321229 -2.248026 -5.491217 2.247988 -1.659864 9.170514 6.409111 2.993688 -3.247184 -0.347375 2.449830 0.000000 0.000000 0.000000 -4.155658 -0.810803 4.051752 -47.909149 -6.408030 0.222097 -4.030316 0.681715 -0.026989 7.930903 5.880800 0.409637 -0.149887 0.082429 0.000000 0.000000 0.000000 0.000000 0.000000 0.000000 0.000000 14.398903 9.785471 -2.642173 95.198691 30.590045 41.645336 0.540582 59.706685 -0.014876 1.286393 15.408090 0.194127 -0.100537 -0.519953 -0.000000 0.000000 0.000000 0.000000 0.000000 0.000000 0.000000 
-5.617663 15.639637 -2.101988 54.905445 81.959293 84.738024 -5.543524 2.088573 6.707594 -2.113852 2.296947 -2.135369 -5.528164 2.224480 -1.674267 9.269114 6.590764 3.043372 -3.304082 -0.348983 2.448014 0.000000 0.000000 0.000000 -4.545033 -1.049679 4.012958 -47.839024 -7.726652 -0.248807 -3.930124 0.728606 -0.026650 9.156201 4.976529 0.397654 -0.144159 0.087430 0.000000 0.000000 0.000000 0.000000 0.000000 0.000000 0.000000 14.780797 9.765680 -2.537740 94.277765 29.947534 39.281188 0.509973 58.414880 -0.018868 0.721406 15.420722 0.114306 -0.096192 -0.507271 -0.000000 0.000000 0.000000 0.000000 0.000000 0.000000 0.000000 
-5.463150 15.575483 -2.093817 55.304862 81.710882 84.758447 -5.616059 2.065885 7.223254 -2.124449 2.274235 -2.014260 -5.555536 2.202579 -1.657754 9.356201 6.785437 3.108013 -3.348355 -0.349825 2.449895 0.000000 0.000000 0.000000 -4.960072 -1.200012 3.950403 -47.930331 -9.316176 -0.600427 -3.809932 0.926773 -0.026178 10.575581 3.826215 0.350070 -0.137491 0.091476 0.000000 0.000000 0.000000 0.000000 0.000000 0.000000 0.000000 15.075971 9.725819 -2.444630 93.317735 29.213323 36.706695 0.478347 56.978633 -0.023181 0.017784 15.451640 0.014887 -0.089534 -0.492483 -0.000000 0.000000 0.000000 0.000000 0.000000 0.000000 0.000000 
-5.309118 15.525498 -2.087083 55.243168 81.489812 84.325248 -5.612226 2.046198 7.714954 -2.118567 2.253203 -1.889647 -5.578520 2.182245 -1.610400 9.446948 6.947409 3.184888 -3.386303 -0.350317 2.455409 0.000000 0.000000 0.000000 -5.358440 -1.332048 3.864928 -48.223192 -11.087487 -1.075339 -3.665877 1.284895 -0.025572 12.151267 2.385043 0.246185 -0.129656 0.094886 0.000000 0.000000 0.000000 0.000000 0.000000 0.000000 0.000000 15.331361 9.622444 -2.350547 92.294009 28.429350 34.015295 0.448389 55.391164 -0.027679 -0.862187 15.466576 -0.109827 -0.079852 -0.475472 -0.000000 0.000000 0.000000 0.000000 0.000000 0.000000 0.000000 
